STARTFONT 2.1
FONT -FontForge-Courgette-Book-R-Normal--12-120-72-72-P-62-ISO10646-1
SIZE 12 72 72
FONTBOUNDINGBOX 15 15 -2 -3
COMMENT "Generated by fontforge, http://fontforge.sourceforge.net"
COMMENT "Copyright (c) 2012, Sorkin Type Co (www.sorkintype.com) with Reserved Font Name "Courgette"."
STARTPROPERTIES 40
FOUNDRY "FontForge"
FAMILY_NAME "Courgette"
WEIGHT_NAME "Book"
SLANT "R"
SETWIDTH_NAME "Normal"
ADD_STYLE_NAME ""
PIXEL_SIZE 12
POINT_SIZE 120
RESOLUTION_X 72
RESOLUTION_Y 72
SPACING "P"
AVERAGE_WIDTH 62
CHARSET_REGISTRY "ISO10646"
CHARSET_ENCODING "1"
FONTNAME_REGISTRY ""
CHARSET_COLLECTIONS "ISO8859-2 ISO8859-9 ISO8859-4 ISO10646-1"
FONT_NAME "Courgette-Regular"
FACE_NAME "Courgette Regular"
COPYRIGHT "Copyright (c) 2012, Sorkin Type Co (www.sorkintype.com) with Reserved Font Name "Courgette"."
FONT_VERSION "1.002"
FONT_ASCENT 10
FONT_DESCENT 2
UNDERLINE_POSITION -1
UNDERLINE_THICKNESS 1
X_HEIGHT 5
CAP_HEIGHT 8
DEFAULT_CHAR 1
RAW_ASCENT 799
RAW_DESCENT 200
NORM_SPACE 4
RELATIVE_WEIGHT 40
RELATIVE_SETWIDTH 50
SUPERSCRIPT_X 0
SUPERSCRIPT_Y 5
SUPERSCRIPT_SIZE 7
SUBSCRIPT_X 0
SUBSCRIPT_Y 1
SUBSCRIPT_SIZE 7
AVG_LOWERCASE_WIDTH 60
AVG_UPPERCASE_WIDTH 70
ENDPROPERTIES
CHARS 407
STARTCHAR .null.dup1
ENCODING 0
SWIDTH 0 0
DWIDTH 0 0
BBX 1 1 0 0
BITMAP
00
ENDCHAR
STARTCHAR uni0001
ENCODING 1
SWIDTH 0 0
DWIDTH 0 0
BBX 1 1 0 0
BITMAP
00
ENDCHAR
STARTCHAR uni0002
ENCODING 2
SWIDTH 0 0
DWIDTH 0 0
BBX 1 1 0 0
BITMAP
00
ENDCHAR
STARTCHAR uni0003
ENCODING 3
SWIDTH 0 0
DWIDTH 0 0
BBX 1 1 0 0
BITMAP
00
ENDCHAR
STARTCHAR uni0004
ENCODING 4
SWIDTH 0 0
DWIDTH 0 0
BBX 1 1 0 0
BITMAP
00
ENDCHAR
STARTCHAR uni0005
ENCODING 5
SWIDTH 0 0
DWIDTH 0 0
BBX 1 1 0 0
BITMAP
00
ENDCHAR
STARTCHAR uni0006
ENCODING 6
SWIDTH 0 0
DWIDTH 0 0
BBX 1 1 0 0
BITMAP
00
ENDCHAR
STARTCHAR uni0007
ENCODING 7
SWIDTH 0 0
DWIDTH 0 0
BBX 1 1 0 0
BITMAP
00
ENDCHAR
STARTCHAR uni0008
ENCODING 8
SWIDTH 0 0
DWIDTH 0 0
BBX 1 1 0 0
BITMAP
00
ENDCHAR
STARTCHAR uni0009
ENCODING 9
SWIDTH 0 0
DWIDTH 0 0
BBX 1 1 0 0
BITMAP
00
ENDCHAR
STARTCHAR nonmarkingreturn
ENCODING 13
SWIDTH 0 0
DWIDTH 0 0
BBX 1 1 0 0
BITMAP
00
ENDCHAR
STARTCHAR uni0015
ENCODING 21
SWIDTH 0 0
DWIDTH 0 0
BBX 1 1 0 0
BITMAP
00
ENDCHAR
STARTCHAR uni0016
ENCODING 22
SWIDTH 0 0
DWIDTH 0 0
BBX 1 1 0 0
BITMAP
00
ENDCHAR
STARTCHAR uni0017
ENCODING 23
SWIDTH 0 0
DWIDTH 0 0
BBX 1 1 0 0
BITMAP
00
ENDCHAR
STARTCHAR uni0018
ENCODING 24
SWIDTH 0 0
DWIDTH 0 0
BBX 1 1 0 0
BITMAP
00
ENDCHAR
STARTCHAR uni0019
ENCODING 25
SWIDTH 0 0
DWIDTH 0 0
BBX 1 1 0 0
BITMAP
00
ENDCHAR
STARTCHAR space
ENCODING 32
SWIDTH 307 0
DWIDTH 4 0
BBX 1 1 0 0
BITMAP
00
ENDCHAR
STARTCHAR exclam
ENCODING 33
SWIDTH 417 0
DWIDTH 5 0
BBX 4 9 1 0
BITMAP
10
30
20
60
40
40
40
80
C0
ENDCHAR
STARTCHAR quotedbl
ENCODING 34
SWIDTH 437 0
DWIDTH 5 0
BBX 4 3 2 7
BITMAP
D0
A0
A0
ENDCHAR
STARTCHAR numbersign
ENCODING 35
SWIDTH 725 0
DWIDTH 9 0
BBX 8 9 1 0
BITMAP
1A
16
14
FF
28
FE
48
50
50
ENDCHAR
STARTCHAR dollar
ENCODING 36
SWIDTH 545 0
DWIDTH 7 0
BBX 6 13 1 -2
BITMAP
04
08
38
64
44
4C
60
20
B0
90
E0
80
80
ENDCHAR
STARTCHAR percent
ENCODING 37
SWIDTH 876 0
DWIDTH 11 0
BBX 9 9 1 0
BITMAP
7100
D200
9600
AC00
4B00
1480
2580
4500
8600
ENDCHAR
STARTCHAR ampersand
ENCODING 38
SWIDTH 563 0
DWIDTH 7 0
BBX 7 9 0 0
BITMAP
1C
32
66
6C
30
60
5E
C8
70
ENDCHAR
STARTCHAR quotesingle
ENCODING 39
SWIDTH 231 0
DWIDTH 3 0
BBX 2 3 2 7
BITMAP
C0
80
80
ENDCHAR
STARTCHAR parenleft
ENCODING 40
SWIDTH 478 0
DWIDTH 6 0
BBX 6 14 1 -3
BITMAP
04
08
10
30
20
40
40
40
C0
C0
C0
40
40
20
ENDCHAR
STARTCHAR parenright
ENCODING 41
SWIDTH 478 0
DWIDTH 6 0
BBX 6 14 -1 -3
BITMAP
10
08
08
0C
0C
0C
0C
08
08
18
10
20
40
80
ENDCHAR
STARTCHAR asterisk
ENCODING 42
SWIDTH 518 0
DWIDTH 6 0
BBX 4 5 2 4
BITMAP
20
C0
F0
C0
A0
ENDCHAR
STARTCHAR plus
ENCODING 43
SWIDTH 617 0
DWIDTH 7 0
BBX 6 6 1 1
BITMAP
20
20
20
FC
20
20
ENDCHAR
STARTCHAR comma
ENCODING 44
SWIDTH 312 0
DWIDTH 4 0
BBX 2 4 0 -2
BITMAP
40
40
40
80
ENDCHAR
STARTCHAR hyphen
ENCODING 45
SWIDTH 452 0
DWIDTH 5 0
BBX 4 1 1 3
BITMAP
F0
ENDCHAR
STARTCHAR period
ENCODING 46
SWIDTH 270 0
DWIDTH 3 0
BBX 2 2 0 0
BITMAP
C0
40
ENDCHAR
STARTCHAR slash
ENCODING 47
SWIDTH 405 0
DWIDTH 5 0
BBX 8 13 -1 -2
BITMAP
01
03
02
04
04
08
08
10
30
20
40
40
80
ENDCHAR
STARTCHAR zero
ENCODING 48
SWIDTH 621 0
DWIDTH 7 0
BBX 7 9 1 0
BITMAP
1C
24
66
44
C4
8C
88
90
E0
ENDCHAR
STARTCHAR one
ENCODING 49
SWIDTH 405 0
DWIDTH 5 0
BBX 4 9 1 0
BITMAP
30
F0
30
20
20
40
40
80
80
ENDCHAR
STARTCHAR two
ENCODING 50
SWIDTH 524 0
DWIDTH 6 0
BBX 6 9 0 0
BITMAP
1C
24
24
2C
08
18
20
40
F8
ENDCHAR
STARTCHAR three
ENCODING 51
SWIDTH 537 0
DWIDTH 6 0
BBX 7 9 0 0
BITMAP
1C
26
26
24
18
38
48
C8
70
ENDCHAR
STARTCHAR four
ENCODING 52
SWIDTH 529 0
DWIDTH 6 0
BBX 5 9 1 0
BITMAP
20
60
48
C8
98
F8
30
20
40
ENDCHAR
STARTCHAR five
ENCODING 53
SWIDTH 540 0
DWIDTH 6 0
BBX 7 9 0 0
BITMAP
1E
10
20
38
44
0C
4C
C8
70
ENDCHAR
STARTCHAR six
ENCODING 54
SWIDTH 554 0
DWIDTH 7 0
BBX 6 9 1 0
BITMAP
1C
24
4C
F0
C8
88
88
90
60
ENDCHAR
STARTCHAR seven
ENCODING 55
SWIDTH 473 0
DWIDTH 6 0
BBX 6 9 1 0
BITMAP
7C
08
10
20
20
40
40
C0
40
ENDCHAR
STARTCHAR eight
ENCODING 56
SWIDTH 524 0
DWIDTH 6 0
BBX 6 9 1 0
BITMAP
38
4C
4C
48
70
70
90
90
E0
ENDCHAR
STARTCHAR nine
ENCODING 57
SWIDTH 554 0
DWIDTH 7 0
BBX 6 9 1 0
BITMAP
38
4C
4C
CC
D8
68
10
90
E0
ENDCHAR
STARTCHAR colon
ENCODING 58
SWIDTH 312 0
DWIDTH 4 0
BBX 3 6 0 0
BITMAP
60
20
00
00
C0
40
ENDCHAR
STARTCHAR semicolon
ENCODING 59
SWIDTH 312 0
DWIDTH 4 0
BBX 3 7 0 -2
BITMAP
60
20
00
40
40
40
80
ENDCHAR
STARTCHAR less
ENCODING 60
SWIDTH 637 0
DWIDTH 8 0
BBX 6 6 1 1
BITMAP
0C
10
60
C0
30
0C
ENDCHAR
STARTCHAR equal
ENCODING 61
SWIDTH 617 0
DWIDTH 7 0
BBX 6 3 1 3
BITMAP
FC
00
FC
ENDCHAR
STARTCHAR greater
ENCODING 62
SWIDTH 606 0
DWIDTH 7 0
BBX 6 6 1 1
BITMAP
C0
20
1C
18
60
80
ENDCHAR
STARTCHAR question
ENCODING 63
SWIDTH 516 0
DWIDTH 6 0
BBX 6 9 1 0
BITMAP
38
6C
68
18
20
40
40
C0
C0
ENDCHAR
STARTCHAR at
ENCODING 64
SWIDTH 905 0
DWIDTH 11 0
BBX 10 10 1 -2
BITMAP
1F00
2080
4E80
9240
B240
A480
AC80
9700
C000
3C00
ENDCHAR
STARTCHAR A
ENCODING 65
SWIDTH 615 0
DWIDTH 7 0
BBX 9 9 -1 0
BITMAP
0380
0500
0900
0B00
1F00
2200
2200
4600
C300
ENDCHAR
STARTCHAR B
ENCODING 66
SWIDTH 551 0
DWIDTH 7 0
BBX 6 9 1 0
BITMAP
7C
A4
64
48
F0
88
88
90
E0
ENDCHAR
STARTCHAR C
ENCODING 67
SWIDTH 533 0
DWIDTH 6 0
BBX 6 9 1 0
BITMAP
1C
24
44
CC
80
80
80
88
F0
ENDCHAR
STARTCHAR D
ENCODING 68
SWIDTH 630 0
DWIDTH 8 0
BBX 7 9 1 0
BITMAP
F8
44
66
46
C6
84
88
90
E0
ENDCHAR
STARTCHAR E
ENCODING 69
SWIDTH 509 0
DWIDTH 6 0
BBX 7 9 0 0
BITMAP
1E
32
26
6C
38
60
40
C8
70
ENDCHAR
STARTCHAR F
ENCODING 70
SWIDTH 518 0
DWIDTH 6 0
BBX 7 9 0 0
BITMAP
7E
58
10
10
7C
20
20
40
C0
ENDCHAR
STARTCHAR G
ENCODING 71
SWIDTH 598 0
DWIDTH 7 0
BBX 6 9 1 0
BITMAP
1C
24
44
CC
80
9C
88
90
E0
ENDCHAR
STARTCHAR H
ENCODING 72
SWIDTH 668 0
DWIDTH 8 0
BBX 8 9 0 0
BITMAP
71
11
31
33
7F
62
44
C4
86
ENDCHAR
STARTCHAR I
ENCODING 73
SWIDTH 327 0
DWIDTH 4 0
BBX 4 9 0 0
BITMAP
70
10
10
30
20
20
60
40
80
ENDCHAR
STARTCHAR J
ENCODING 74
SWIDTH 393 0
DWIDTH 5 0
BBX 7 12 -2 -3
BITMAP
0E
12
06
06
04
0C
08
08
10
30
20
C0
ENDCHAR
STARTCHAR K
ENCODING 75
SWIDTH 616 0
DWIDTH 7 0
BBX 9 9 -1 0
BITMAP
3980
1980
1900
1200
1400
3800
2400
6600
C300
ENDCHAR
STARTCHAR L
ENCODING 76
SWIDTH 517 0
DWIDTH 6 0
BBX 7 9 0 0
BITMAP
0C
12
36
2C
28
60
40
88
FC
ENDCHAR
STARTCHAR M
ENCODING 77
SWIDTH 931 0
DWIDTH 11 0
BBX 12 9 -1 0
BITMAP
0330
0750
0A70
12A0
16A0
2560
2540
4640
C470
ENDCHAR
STARTCHAR N
ENCODING 78
SWIDTH 708 0
DWIDTH 9 0
BBX 9 9 0 0
BITMAP
0980
1880
2880
2880
4900
4900
4E00
8E00
8400
ENDCHAR
STARTCHAR O
ENCODING 79
SWIDTH 655 0
DWIDTH 8 0
BBX 7 9 1 0
BITMAP
1C
22
62
C2
86
84
8C
98
70
ENDCHAR
STARTCHAR P
ENCODING 80
SWIDTH 553 0
DWIDTH 7 0
BBX 7 9 0 0
BITMAP
3C
62
12
32
24
78
40
C0
80
ENDCHAR
STARTCHAR Q
ENCODING 81
SWIDTH 655 0
DWIDTH 8 0
BBX 8 11 1 -2
BITMAP
1C
22
42
C6
86
84
C8
50
70
18
07
ENDCHAR
STARTCHAR R
ENCODING 82
SWIDTH 623 0
DWIDTH 7 0
BBX 8 9 0 0
BITMAP
3E
62
13
32
2C
70
48
CC
86
ENDCHAR
STARTCHAR S
ENCODING 83
SWIDTH 474 0
DWIDTH 6 0
BBX 7 9 0 0
BITMAP
1C
26
66
6C
20
30
50
90
60
ENDCHAR
STARTCHAR T
ENCODING 84
SWIDTH 471 0
DWIDTH 6 0
BBX 7 9 1 0
BITMAP
FE
90
30
20
20
60
40
40
80
ENDCHAR
STARTCHAR U
ENCODING 85
SWIDTH 624 0
DWIDTH 8 0
BBX 8 9 0 0
BITMAP
31
11
33
22
66
4E
CC
D4
E6
ENDCHAR
STARTCHAR V
ENCODING 86
SWIDTH 587 0
DWIDTH 7 0
BBX 8 9 1 0
BITMAP
E2
33
22
66
4C
C8
90
A0
C0
ENDCHAR
STARTCHAR W
ENCODING 87
SWIDTH 941 0
DWIDTH 11 0
BBX 11 9 1 0
BITMAP
E060
2060
6620
4C60
DC40
DC40
A880
C900
C600
ENDCHAR
STARTCHAR X
ENCODING 88
SWIDTH 552 0
DWIDTH 7 0
BBX 9 9 -1 0
BITMAP
0880
0900
0A00
0C00
0800
1800
1C00
2400
C700
ENDCHAR
STARTCHAR Y
ENCODING 89
SWIDTH 580 0
DWIDTH 7 0
BBX 8 12 0 -3
BITMAP
31
11
32
22
66
4C
CC
DC
E8
10
30
60
ENDCHAR
STARTCHAR Z
ENCODING 90
SWIDTH 501 0
DWIDTH 6 0
BBX 7 9 0 0
BITMAP
3E
06
0C
18
30
60
40
F8
C4
ENDCHAR
STARTCHAR bracketleft
ENCODING 91
SWIDTH 396 0
DWIDTH 5 0
BBX 6 13 0 -2
BITMAP
0C
08
18
10
10
30
20
20
60
40
40
C0
C0
ENDCHAR
STARTCHAR backslash
ENCODING 92
SWIDTH 464 0
DWIDTH 6 0
BBX 4 13 1 -2
BITMAP
80
80
80
80
40
40
40
40
20
20
20
20
10
ENDCHAR
STARTCHAR bracketright
ENCODING 93
SWIDTH 394 0
DWIDTH 5 0
BBX 7 13 -1 -2
BITMAP
0E
04
04
0C
08
08
18
10
10
30
20
20
E0
ENDCHAR
STARTCHAR asciicircum
ENCODING 94
SWIDTH 540 0
DWIDTH 6 0
BBX 5 5 1 4
BITMAP
20
30
50
48
88
ENDCHAR
STARTCHAR underscore
ENCODING 95
SWIDTH 530 0
DWIDTH 6 0
BBX 8 1 -2 -2
BITMAP
FF
ENDCHAR
STARTCHAR grave
ENCODING 96
SWIDTH 219 0
DWIDTH 3 0
BBX 2 3 0 6
BITMAP
C0
40
40
ENDCHAR
STARTCHAR a
ENCODING 97
SWIDTH 541 0
DWIDTH 7 0
BBX 6 6 0 0
BITMAP
3C
64
4C
C8
D8
6C
ENDCHAR
STARTCHAR b
ENCODING 98
SWIDTH 525 0
DWIDTH 6 0
BBX 6 10 0 0
BITMAP
30
30
20
20
78
6C
4C
4C
D8
70
ENDCHAR
STARTCHAR c
ENCODING 99
SWIDTH 465 0
DWIDTH 6 0
BBX 5 6 0 0
BITMAP
38
68
48
C0
C8
70
ENDCHAR
STARTCHAR d
ENCODING 100
SWIDTH 557 0
DWIDTH 7 0
BBX 8 10 0 0
BITMAP
01
02
02
06
1C
24
4C
48
D8
6C
ENDCHAR
STARTCHAR e
ENCODING 101
SWIDTH 471 0
DWIDTH 6 0
BBX 5 6 0 0
BITMAP
18
68
48
70
C8
70
ENDCHAR
STARTCHAR f
ENCODING 102
SWIDTH 393 0
DWIDTH 5 0
BBX 6 12 0 -2
BITMAP
0C
14
14
30
20
78
20
40
40
40
C0
80
ENDCHAR
STARTCHAR g
ENCODING 103
SWIDTH 526 0
DWIDTH 6 0
BBX 6 9 0 -3
BITMAP
1C
64
4C
48
D8
68
10
10
60
ENDCHAR
STARTCHAR h
ENCODING 104
SWIDTH 555 0
DWIDTH 7 0
BBX 6 10 0 0
BITMAP
10
10
30
20
2C
34
6C
48
C8
8C
ENDCHAR
STARTCHAR i
ENCODING 105
SWIDTH 286 0
DWIDTH 3 0
BBX 4 9 0 0
BITMAP
30
20
00
60
20
40
40
C0
E0
ENDCHAR
STARTCHAR j
ENCODING 106
SWIDTH 281 0
DWIDTH 3 0
BBX 6 12 -2 -3
BITMAP
0C
08
00
18
18
18
10
10
30
20
40
80
ENDCHAR
STARTCHAR k
ENCODING 107
SWIDTH 497 0
DWIDTH 6 0
BBX 6 10 0 0
BITMAP
10
10
30
20
2C
2C
58
60
D0
9C
ENDCHAR
STARTCHAR l
ENCODING 108
SWIDTH 279 0
DWIDTH 3 0
BBX 4 10 0 0
BITMAP
10
30
20
20
20
60
40
40
C0
60
ENDCHAR
STARTCHAR m
ENCODING 109
SWIDTH 814 0
DWIDTH 10 0
BBX 9 6 0 0
BITMAP
6D80
3680
6580
4D00
C900
9980
ENDCHAR
STARTCHAR n
ENCODING 110
SWIDTH 561 0
DWIDTH 7 0
BBX 6 6 0 0
BITMAP
6C
34
6C
48
C8
8C
ENDCHAR
STARTCHAR o
ENCODING 111
SWIDTH 514 0
DWIDTH 6 0
BBX 6 6 0 0
BITMAP
38
6C
4C
C8
D8
70
ENDCHAR
STARTCHAR p
ENCODING 112
SWIDTH 550 0
DWIDTH 7 0
BBX 7 9 -1 -3
BITMAP
3E
32
32
26
24
58
40
40
80
ENDCHAR
STARTCHAR q
ENCODING 113
SWIDTH 533 0
DWIDTH 6 0
BBX 7 9 0 -3
BITMAP
1E
64
4C
48
D8
68
10
10
10
ENDCHAR
STARTCHAR r
ENCODING 114
SWIDTH 407 0
DWIDTH 5 0
BBX 5 6 0 0
BITMAP
68
78
60
40
40
80
ENDCHAR
STARTCHAR s
ENCODING 115
SWIDTH 423 0
DWIDTH 5 0
BBX 5 6 0 0
BITMAP
38
48
60
30
90
E0
ENDCHAR
STARTCHAR t
ENCODING 116
SWIDTH 358 0
DWIDTH 4 0
BBX 4 8 1 0
BITMAP
20
60
F0
40
C0
80
A0
C0
ENDCHAR
STARTCHAR u
ENCODING 117
SWIDTH 553 0
DWIDTH 7 0
BBX 7 6 0 0
BITMAP
66
24
6C
48
D8
EC
ENDCHAR
STARTCHAR v
ENCODING 118
SWIDTH 510 0
DWIDTH 6 0
BBX 6 6 0 0
BITMAP
6C
24
44
48
D8
60
ENDCHAR
STARTCHAR w
ENCODING 119
SWIDTH 750 0
DWIDTH 9 0
BBX 9 6 0 0
BITMAP
6580
2C80
4880
5900
6900
CE00
ENDCHAR
STARTCHAR x
ENCODING 120
SWIDTH 467 0
DWIDTH 6 0
BBX 6 6 0 0
BITMAP
2C
78
70
20
60
98
ENDCHAR
STARTCHAR y
ENCODING 121
SWIDTH 549 0
DWIDTH 7 0
BBX 7 9 0 -3
BITMAP
66
24
6C
4C
D8
E8
10
10
60
ENDCHAR
STARTCHAR z
ENCODING 122
SWIDTH 430 0
DWIDTH 5 0
BBX 6 6 0 0
BITMAP
7C
08
30
60
C0
F0
ENDCHAR
STARTCHAR braceleft
ENCODING 123
SWIDTH 424 0
DWIDTH 5 0
BBX 6 13 1 -2
BITMAP
0C
10
10
30
20
20
C0
40
40
C0
80
80
C0
ENDCHAR
STARTCHAR bar
ENCODING 124
SWIDTH 306 0
DWIDTH 4 0
BBX 2 13 1 -2
BITMAP
40
C0
C0
C0
C0
C0
C0
C0
C0
C0
C0
C0
80
ENDCHAR
STARTCHAR braceright
ENCODING 125
SWIDTH 424 0
DWIDTH 5 0
BBX 6 13 -1 -2
BITMAP
0C
04
04
0C
08
08
0C
10
30
20
20
60
C0
ENDCHAR
STARTCHAR asciitilde
ENCODING 126
SWIDTH 624 0
DWIDTH 8 0
BBX 6 3 1 3
BITMAP
64
B4
98
ENDCHAR
STARTCHAR nonbreakingspace
ENCODING 160
SWIDTH 293 0
DWIDTH 4 0
BBX 1 1 0 0
BITMAP
00
ENDCHAR
STARTCHAR exclamdown
ENCODING 161
SWIDTH 417 0
DWIDTH 5 0
BBX 5 10 0 -3
BITMAP
10
18
00
20
20
40
40
C0
C0
40
ENDCHAR
STARTCHAR cent
ENCODING 162
SWIDTH 487 0
DWIDTH 6 0
BBX 5 9 1 0
BITMAP
08
10
78
48
D0
80
90
60
40
ENDCHAR
STARTCHAR sterling
ENCODING 163
SWIDTH 665 0
DWIDTH 8 0
BBX 8 9 0 0
BITMAP
07
0D
09
1A
3C
30
E0
B2
FE
ENDCHAR
STARTCHAR currency
ENCODING 164
SWIDTH 572 0
DWIDTH 7 0
BBX 6 8 1 0
BITMAP
20
3C
68
48
D8
D0
F0
90
ENDCHAR
STARTCHAR yen
ENCODING 165
SWIDTH 583 0
DWIDTH 7 0
BBX 8 9 1 0
BITMAP
C3
44
6C
38
30
F8
20
F0
60
ENDCHAR
STARTCHAR brokenbar
ENCODING 166
SWIDTH 292 0
DWIDTH 4 0
BBX 1 13 1 -2
BITMAP
80
80
80
80
80
80
00
80
80
80
80
80
80
ENDCHAR
STARTCHAR section
ENCODING 167
SWIDTH 583 0
DWIDTH 7 0
BBX 7 13 0 -3
BITMAP
0C
12
12
16
18
68
4C
64
2C
30
90
90
60
ENDCHAR
STARTCHAR dieresis
ENCODING 168
SWIDTH 412 0
DWIDTH 5 0
BBX 5 2 0 7
BITMAP
D8
58
ENDCHAR
STARTCHAR copyright
ENCODING 169
SWIDTH 871 0
DWIDTH 10 0
BBX 9 9 1 0
BITMAP
1E00
2D00
5280
B480
A080
A480
9900
4200
3C00
ENDCHAR
STARTCHAR ordfeminine
ENCODING 170
SWIDTH 564 0
DWIDTH 7 0
BBX 6 6 1 3
BITMAP
34
68
48
D8
D0
78
ENDCHAR
STARTCHAR guillemotleft
ENCODING 171
SWIDTH 662 0
DWIDTH 8 0
BBX 6 5 1 1
BITMAP
24
48
90
48
24
ENDCHAR
STARTCHAR logicalnot
ENCODING 172
SWIDTH 729 0
DWIDTH 9 0
BBX 7 4 1 1
BITMAP
FE
02
02
06
ENDCHAR
STARTCHAR uni00AD
ENCODING 173
SWIDTH 833 0
DWIDTH 10 0
BBX 1 1 0 0
BITMAP
00
ENDCHAR
STARTCHAR registered
ENCODING 174
SWIDTH 742 0
DWIDTH 9 0
BBX 8 8 1 1
BITMAP
3C
5A
65
99
B2
AA
44
38
ENDCHAR
STARTCHAR macron
ENCODING 175
SWIDTH 392 0
DWIDTH 5 0
BBX 4 1 1 7
BITMAP
F0
ENDCHAR
STARTCHAR degree
ENCODING 176
SWIDTH 405 0
DWIDTH 5 0
BBX 4 4 1 5
BITMAP
70
D0
90
60
ENDCHAR
STARTCHAR plusminus
ENCODING 177
SWIDTH 617 0
DWIDTH 7 0
BBX 6 8 1 0
BITMAP
20
20
20
FC
20
20
00
FC
ENDCHAR
STARTCHAR twosuperior
ENCODING 178
SWIDTH 458 0
DWIDTH 6 0
BBX 5 6 1 3
BITMAP
30
48
50
30
40
F0
ENDCHAR
STARTCHAR threesuperior
ENCODING 179
SWIDTH 430 0
DWIDTH 5 0
BBX 5 7 1 2
BITMAP
30
58
50
60
10
B0
E0
ENDCHAR
STARTCHAR acute
ENCODING 180
SWIDTH 322 0
DWIDTH 4 0
BBX 3 3 1 7
BITMAP
20
60
C0
ENDCHAR
STARTCHAR mu
ENCODING 181
SWIDTH 618 0
DWIDTH 7 0
BBX 7 9 0 -3
BITMAP
32
26
64
4C
DC
E6
80
80
80
ENDCHAR
STARTCHAR paragraph
ENCODING 182
SWIDTH 739 0
DWIDTH 9 0
BBX 10 11 0 -1
BITMAP
07C0
1E80
3C80
3D80
1D00
0D00
0900
0A00
5A00
D200
6400
ENDCHAR
STARTCHAR periodcentered
ENCODING 183
SWIDTH 353 0
DWIDTH 4 0
BBX 2 2 1 3
BITMAP
C0
40
ENDCHAR
STARTCHAR cedilla
ENCODING 184
SWIDTH 301 0
DWIDTH 4 0
BBX 2 3 1 -3
BITMAP
40
40
80
ENDCHAR
STARTCHAR onesuperior
ENCODING 185
SWIDTH 403 0
DWIDTH 5 0
BBX 4 6 1 3
BITMAP
30
F0
20
20
40
40
ENDCHAR
STARTCHAR ordmasculine
ENCODING 186
SWIDTH 498 0
DWIDTH 6 0
BBX 5 6 1 3
BITMAP
30
48
48
D8
90
60
ENDCHAR
STARTCHAR guillemotright
ENCODING 187
SWIDTH 665 0
DWIDTH 8 0
BBX 6 5 1 1
BITMAP
D8
6C
24
D8
A0
ENDCHAR
STARTCHAR onequarter
ENCODING 188
SWIDTH 988 0
DWIDTH 12 0
BBX 10 10 1 0
BITMAP
0100
3200
E200
2400
6D00
4B40
92C0
13C0
2080
6100
ENDCHAR
STARTCHAR onehalf
ENCODING 189
SWIDTH 988 0
DWIDTH 12 0
BBX 10 10 1 0
BITMAP
0100
3200
6400
A400
69C0
4B40
90C0
1180
2300
6780
ENDCHAR
STARTCHAR threequarters
ENCODING 190
SWIDTH 1007 0
DWIDTH 12 0
BBX 11 10 0 0
BITMAP
0080
3880
2900
1900
32C0
D6A0
65A0
09E0
0840
1080
ENDCHAR
STARTCHAR questiondown
ENCODING 191
SWIDTH 516 0
DWIDTH 6 0
BBX 6 9 0 -2
BITMAP
0C
08
08
10
30
60
90
90
60
ENDCHAR
STARTCHAR Agrave
ENCODING 192
SWIDTH 615 0
DWIDTH 7 0
BBX 9 12 -1 0
BITMAP
0100
0300
0080
0380
0500
0900
0B00
1F00
2200
2200
4600
C300
ENDCHAR
STARTCHAR Aacute
ENCODING 193
SWIDTH 615 0
DWIDTH 7 0
BBX 9 12 -1 0
BITMAP
0080
0080
0100
0380
0500
0900
0B00
1F00
2200
2200
4600
C300
ENDCHAR
STARTCHAR Acircumflex
ENCODING 194
SWIDTH 615 0
DWIDTH 7 0
BBX 10 12 -1 0
BITMAP
0080
0180
02C0
0380
0500
0900
0B00
1F00
2200
2200
4600
C300
ENDCHAR
STARTCHAR Atilde
ENCODING 195
SWIDTH 615 0
DWIDTH 7 0
BBX 10 12 -1 0
BITMAP
0340
0480
0000
0380
0500
0900
0B00
1F00
2200
2200
4600
C300
ENDCHAR
STARTCHAR Adieresis
ENCODING 196
SWIDTH 615 0
DWIDTH 7 0
BBX 10 12 -1 0
BITMAP
0240
02C0
0000
0380
0500
0900
0B00
1F00
2200
2200
4600
C300
ENDCHAR
STARTCHAR Aring
ENCODING 197
SWIDTH 615 0
DWIDTH 7 0
BBX 9 12 -1 0
BITMAP
0180
0280
0280
0180
0700
0D00
0B00
3F00
2200
2600
4600
C300
ENDCHAR
STARTCHAR AE
ENCODING 198
SWIDTH 878 0
DWIDTH 11 0
BBX 12 9 -1 0
BITMAP
03F0
0590
0D10
0920
1FC0
2300
2220
4260
C1C0
ENDCHAR
STARTCHAR Ccedilla
ENCODING 199
SWIDTH 533 0
DWIDTH 6 0
BBX 6 12 1 -3
BITMAP
1C
24
44
CC
80
80
80
88
F0
40
40
80
ENDCHAR
STARTCHAR Egrave
ENCODING 200
SWIDTH 509 0
DWIDTH 6 0
BBX 7 12 0 0
BITMAP
08
08
04
1E
32
26
6C
38
60
40
C8
70
ENDCHAR
STARTCHAR Eacute
ENCODING 201
SWIDTH 509 0
DWIDTH 6 0
BBX 7 12 0 0
BITMAP
02
02
04
1E
32
26
6C
38
60
40
C8
70
ENDCHAR
STARTCHAR Ecircumflex
ENCODING 202
SWIDTH 509 0
DWIDTH 6 0
BBX 7 12 0 0
BITMAP
04
0E
12
1E
32
26
6C
38
60
40
C8
70
ENDCHAR
STARTCHAR Edieresis
ENCODING 203
SWIDTH 509 0
DWIDTH 6 0
BBX 8 12 0 0
BITMAP
0A
1B
00
1E
32
26
6C
38
60
40
C8
70
ENDCHAR
STARTCHAR Igrave
ENCODING 204
SWIDTH 327 0
DWIDTH 4 0
BBX 4 12 0 0
BITMAP
10
30
10
70
10
10
30
20
20
60
40
80
ENDCHAR
STARTCHAR Iacute
ENCODING 205
SWIDTH 327 0
DWIDTH 4 0
BBX 6 12 0 0
BITMAP
08
0C
10
70
10
10
30
20
20
60
40
80
ENDCHAR
STARTCHAR Icircumflex
ENCODING 206
SWIDTH 327 0
DWIDTH 4 0
BBX 6 12 0 0
BITMAP
08
18
24
70
10
10
30
20
20
60
40
80
ENDCHAR
STARTCHAR Idieresis
ENCODING 207
SWIDTH 327 0
DWIDTH 4 0
BBX 6 12 0 0
BITMAP
24
2C
00
70
10
10
30
20
20
60
40
80
ENDCHAR
STARTCHAR Eth
ENCODING 208
SWIDTH 630 0
DWIDTH 8 0
BBX 8 9 0 0
BITMAP
7C
02
33
FB
62
42
44
C8
70
ENDCHAR
STARTCHAR Ntilde
ENCODING 209
SWIDTH 708 0
DWIDTH 9 0
BBX 10 11 0 0
BITMAP
07C0
0000
0980
1880
2880
2880
4900
4900
4E00
8E00
8400
ENDCHAR
STARTCHAR Ograve
ENCODING 210
SWIDTH 655 0
DWIDTH 8 0
BBX 7 12 1 0
BITMAP
08
08
04
1C
22
62
C2
86
84
8C
98
70
ENDCHAR
STARTCHAR Oacute
ENCODING 211
SWIDTH 655 0
DWIDTH 8 0
BBX 7 12 1 0
BITMAP
02
02
04
1C
22
62
C2
86
84
8C
98
70
ENDCHAR
STARTCHAR Ocircumflex
ENCODING 212
SWIDTH 655 0
DWIDTH 8 0
BBX 7 12 1 0
BITMAP
02
0E
12
1C
22
62
C2
86
84
8C
98
70
ENDCHAR
STARTCHAR Otilde
ENCODING 213
SWIDTH 655 0
DWIDTH 8 0
BBX 8 12 1 0
BITMAP
0D
16
00
1C
22
62
C2
86
84
8C
98
70
ENDCHAR
STARTCHAR Odieresis
ENCODING 214
SWIDTH 655 0
DWIDTH 8 0
BBX 8 12 1 0
BITMAP
0A
1B
00
1C
22
62
C2
86
84
8C
98
70
ENDCHAR
STARTCHAR multiply
ENCODING 215
SWIDTH 573 0
DWIDTH 7 0
BBX 5 5 1 2
BITMAP
88
50
20
50
88
ENDCHAR
STARTCHAR Oslash
ENCODING 216
SWIDTH 655 0
DWIDTH 8 0
BBX 8 11 1 -1
BITMAP
03
1E
36
6A
4A
D2
E6
A4
C8
70
80
ENDCHAR
STARTCHAR Ugrave
ENCODING 217
SWIDTH 624 0
DWIDTH 8 0
BBX 8 12 0 0
BITMAP
04
0C
02
31
11
33
22
66
4E
CC
D4
E6
ENDCHAR
STARTCHAR Uacute
ENCODING 218
SWIDTH 624 0
DWIDTH 8 0
BBX 8 12 0 0
BITMAP
02
03
04
31
11
33
22
66
4E
CC
D4
E6
ENDCHAR
STARTCHAR Ucircumflex
ENCODING 219
SWIDTH 624 0
DWIDTH 8 0
BBX 8 12 0 0
BITMAP
02
06
09
31
11
33
22
66
4E
CC
D4
E6
ENDCHAR
STARTCHAR Udieresis
ENCODING 220
SWIDTH 624 0
DWIDTH 8 0
BBX 8 12 0 0
BITMAP
09
0B
00
31
11
33
22
66
4E
CC
D4
E6
ENDCHAR
STARTCHAR Yacute
ENCODING 221
SWIDTH 580 0
DWIDTH 7 0
BBX 8 15 0 -3
BITMAP
02
02
04
31
11
32
22
66
4C
CC
DC
E8
10
30
60
ENDCHAR
STARTCHAR Thorn
ENCODING 222
SWIDTH 527 0
DWIDTH 6 0
BBX 7 9 -1 0
BITMAP
38
18
1C
12
12
36
38
60
C0
ENDCHAR
STARTCHAR germandbls
ENCODING 223
SWIDTH 520 0
DWIDTH 6 0
BBX 7 12 -1 -2
BITMAP
0E
0A
12
12
34
28
2C
26
72
5C
40
80
ENDCHAR
STARTCHAR agrave
ENCODING 224
SWIDTH 541 0
DWIDTH 7 0
BBX 6 9 0 0
BITMAP
18
08
08
3C
64
4C
C8
D8
6C
ENDCHAR
STARTCHAR aacute
ENCODING 225
SWIDTH 541 0
DWIDTH 7 0
BBX 6 9 0 0
BITMAP
04
08
10
3C
64
4C
C8
D8
6C
ENDCHAR
STARTCHAR acircumflex
ENCODING 226
SWIDTH 541 0
DWIDTH 7 0
BBX 6 9 0 0
BITMAP
04
1C
24
3C
64
4C
C8
D8
6C
ENDCHAR
STARTCHAR atilde
ENCODING 227
SWIDTH 541 0
DWIDTH 7 0
BBX 7 9 0 0
BITMAP
1A
2C
00
3C
64
4C
C8
D8
6C
ENDCHAR
STARTCHAR adieresis
ENCODING 228
SWIDTH 541 0
DWIDTH 7 0
BBX 7 9 0 0
BITMAP
36
14
00
3C
64
4C
C8
D8
6C
ENDCHAR
STARTCHAR aring
ENCODING 229
SWIDTH 541 0
DWIDTH 7 0
BBX 6 9 0 0
BITMAP
1C
1C
00
3C
64
4C
C8
D8
6C
ENDCHAR
STARTCHAR ae
ENCODING 230
SWIDTH 769 0
DWIDTH 9 0
BBX 9 6 0 0
BITMAP
3F80
6480
4D80
CF00
D880
6700
ENDCHAR
STARTCHAR ccedilla
ENCODING 231
SWIDTH 465 0
DWIDTH 6 0
BBX 5 9 0 -3
BITMAP
38
68
48
C0
C8
70
20
60
40
ENDCHAR
STARTCHAR egrave
ENCODING 232
SWIDTH 471 0
DWIDTH 6 0
BBX 5 9 0 0
BITMAP
10
10
08
18
68
48
70
C8
70
ENDCHAR
STARTCHAR eacute
ENCODING 233
SWIDTH 471 0
DWIDTH 6 0
BBX 5 9 0 0
BITMAP
08
18
10
18
68
48
70
C8
70
ENDCHAR
STARTCHAR ecircumflex
ENCODING 234
SWIDTH 471 0
DWIDTH 6 0
BBX 6 9 0 0
BITMAP
08
14
24
18
68
48
70
C8
70
ENDCHAR
STARTCHAR edieresis
ENCODING 235
SWIDTH 471 0
DWIDTH 6 0
BBX 6 9 0 0
BITMAP
34
24
00
18
68
48
70
C8
70
ENDCHAR
STARTCHAR igrave
ENCODING 236
SWIDTH 286 0
DWIDTH 3 0
BBX 3 9 0 0
BITMAP
20
20
20
60
20
40
40
C0
E0
ENDCHAR
STARTCHAR iacute
ENCODING 237
SWIDTH 286 0
DWIDTH 3 0
BBX 4 9 0 0
BITMAP
10
30
40
60
20
40
40
C0
E0
ENDCHAR
STARTCHAR icircumflex
ENCODING 238
SWIDTH 286 0
DWIDTH 3 0
BBX 5 9 0 0
BITMAP
10
30
48
60
20
40
40
C0
E0
ENDCHAR
STARTCHAR idieresis
ENCODING 239
SWIDTH 286 0
DWIDTH 3 0
BBX 5 9 0 0
BITMAP
58
48
00
60
20
40
40
C0
E0
ENDCHAR
STARTCHAR eth
ENCODING 240
SWIDTH 524 0
DWIDTH 6 0
BBX 8 10 0 0
BITMAP
04
07
0C
04
3C
64
4C
48
D8
70
ENDCHAR
STARTCHAR ntilde
ENCODING 241
SWIDTH 561 0
DWIDTH 7 0
BBX 7 9 0 0
BITMAP
1A
2C
00
6C
34
6C
48
C8
8C
ENDCHAR
STARTCHAR ograve
ENCODING 242
SWIDTH 514 0
DWIDTH 6 0
BBX 6 9 0 0
BITMAP
18
08
08
38
6C
4C
C8
D8
70
ENDCHAR
STARTCHAR oacute
ENCODING 243
SWIDTH 514 0
DWIDTH 6 0
BBX 6 9 0 0
BITMAP
04
08
10
38
6C
4C
C8
D8
70
ENDCHAR
STARTCHAR ocircumflex
ENCODING 244
SWIDTH 514 0
DWIDTH 6 0
BBX 7 9 0 0
BITMAP
04
1C
22
38
6C
4C
C8
D8
70
ENDCHAR
STARTCHAR otilde
ENCODING 245
SWIDTH 514 0
DWIDTH 6 0
BBX 7 9 0 0
BITMAP
1A
2C
00
38
6C
4C
C8
D8
70
ENDCHAR
STARTCHAR odieresis
ENCODING 246
SWIDTH 514 0
DWIDTH 6 0
BBX 7 9 0 0
BITMAP
36
16
00
38
6C
4C
C8
D8
70
ENDCHAR
STARTCHAR divide
ENCODING 247
SWIDTH 617 0
DWIDTH 7 0
BBX 6 6 1 2
BITMAP
20
30
00
FC
00
30
ENDCHAR
STARTCHAR oslash
ENCODING 248
SWIDTH 514 0
DWIDTH 6 0
BBX 6 8 0 -1
BITMAP
04
38
6C
5C
E8
D8
70
40
ENDCHAR
STARTCHAR ugrave
ENCODING 249
SWIDTH 553 0
DWIDTH 7 0
BBX 7 9 0 0
BITMAP
08
08
04
66
24
4C
58
E8
CC
ENDCHAR
STARTCHAR uacute
ENCODING 250
SWIDTH 553 0
DWIDTH 7 0
BBX 7 9 0 0
BITMAP
04
0C
10
66
24
6C
48
D8
EC
ENDCHAR
STARTCHAR ucircumflex
ENCODING 251
SWIDTH 553 0
DWIDTH 7 0
BBX 7 9 0 0
BITMAP
04
0C
12
66
24
6C
48
D8
EC
ENDCHAR
STARTCHAR udieresis
ENCODING 252
SWIDTH 553 0
DWIDTH 7 0
BBX 7 9 0 0
BITMAP
1E
12
00
66
24
6C
48
D8
EC
ENDCHAR
STARTCHAR yacute
ENCODING 253
SWIDTH 549 0
DWIDTH 7 0
BBX 7 12 0 -3
BITMAP
04
08
10
66
24
6C
4C
D8
E8
10
10
60
ENDCHAR
STARTCHAR thorn
ENCODING 254
SWIDTH 552 0
DWIDTH 7 0
BBX 7 13 -1 -3
BITMAP
08
08
18
10
1E
32
32
26
24
58
40
C0
80
ENDCHAR
STARTCHAR ydieresis
ENCODING 255
SWIDTH 549 0
DWIDTH 7 0
BBX 7 12 0 -3
BITMAP
36
16
00
66
24
6C
4C
D8
E8
10
10
60
ENDCHAR
STARTCHAR Amacron
ENCODING 256
SWIDTH 615 0
DWIDTH 7 0
BBX 10 11 -1 0
BITMAP
03C0
0000
0380
0500
0900
0B00
1F00
2200
2200
4600
C300
ENDCHAR
STARTCHAR amacron
ENCODING 257
SWIDTH 543 0
DWIDTH 7 0
BBX 7 8 0 0
BITMAP
3E
00
1E
64
4C
C8
D8
6C
ENDCHAR
STARTCHAR Abreve
ENCODING 258
SWIDTH 615 0
DWIDTH 7 0
BBX 10 12 -1 0
BITMAP
0240
0380
0000
0380
0500
0900
0B00
1F00
2200
2200
4600
C300
ENDCHAR
STARTCHAR abreve
ENCODING 259
SWIDTH 543 0
DWIDTH 7 0
BBX 7 9 0 0
BITMAP
12
1C
00
1E
64
4C
C8
D8
6C
ENDCHAR
STARTCHAR Aogonek
ENCODING 260
SWIDTH 615 0
DWIDTH 7 0
BBX 9 12 -1 -3
BITMAP
0380
0500
0900
0B00
1F00
2200
2200
4600
C300
0400
0400
0600
ENDCHAR
STARTCHAR aogonek
ENCODING 261
SWIDTH 541 0
DWIDTH 7 0
BBX 6 9 0 -3
BITMAP
3C
64
4C
C8
D8
6C
08
10
18
ENDCHAR
STARTCHAR Cacute
ENCODING 262
SWIDTH 533 0
DWIDTH 6 0
BBX 7 12 1 0
BITMAP
02
02
04
1C
24
44
CC
80
80
80
88
F0
ENDCHAR
STARTCHAR cacute
ENCODING 263
SWIDTH 468 0
DWIDTH 6 0
BBX 6 9 0 0
BITMAP
04
04
08
38
6C
48
C0
C8
70
ENDCHAR
STARTCHAR Ccircumflex
ENCODING 264
SWIDTH 533 0
DWIDTH 6 0
BBX 7 12 1 0
BITMAP
04
0E
12
1C
24
44
CC
80
80
80
88
F0
ENDCHAR
STARTCHAR ccircumflex
ENCODING 265
SWIDTH 468 0
DWIDTH 6 0
BBX 6 9 0 0
BITMAP
04
1C
24
38
6C
48
C0
C8
70
ENDCHAR
STARTCHAR Cdotaccent
ENCODING 266
SWIDTH 533 0
DWIDTH 6 0
BBX 6 12 1 0
BITMAP
08
0C
00
1C
24
44
CC
80
80
80
88
F0
ENDCHAR
STARTCHAR cdotaccent
ENCODING 267
SWIDTH 468 0
DWIDTH 6 0
BBX 6 9 0 0
BITMAP
0C
08
00
38
6C
48
C0
C8
70
ENDCHAR
STARTCHAR Ccaron
ENCODING 268
SWIDTH 533 0
DWIDTH 6 0
BBX 8 12 1 0
BITMAP
01
0E
08
1C
24
44
CC
80
80
80
88
F0
ENDCHAR
STARTCHAR ccaron
ENCODING 269
SWIDTH 468 0
DWIDTH 6 0
BBX 7 9 0 0
BITMAP
12
0C
00
38
6C
48
C0
C8
70
ENDCHAR
STARTCHAR Dcaron
ENCODING 270
SWIDTH 630 0
DWIDTH 8 0
BBX 7 12 1 0
BITMAP
02
1E
08
F8
44
66
46
C6
84
88
90
E0
ENDCHAR
STARTCHAR dcaron
ENCODING 271
SWIDTH 557 0
DWIDTH 7 0
BBX 10 10 0 0
BITMAP
01C0
0240
0280
0600
1C00
2400
4C00
4800
D800
6C00
ENDCHAR
STARTCHAR Dcroat
ENCODING 272
SWIDTH 630 0
DWIDTH 8 0
BBX 8 9 0 0
BITMAP
7C
42
33
23
FA
42
44
C8
70
ENDCHAR
STARTCHAR dcroat
ENCODING 273
SWIDTH 557 0
DWIDTH 7 0
BBX 8 10 0 0
BITMAP
03
0F
02
06
1C
24
4C
48
D8
6C
ENDCHAR
STARTCHAR Emacron
ENCODING 274
SWIDTH 509 0
DWIDTH 6 0
BBX 7 11 0 0
BITMAP
1E
00
1E
32
26
6C
38
60
40
C8
70
ENDCHAR
STARTCHAR emacron
ENCODING 275
SWIDTH 471 0
DWIDTH 6 0
BBX 6 8 0 0
BITMAP
3C
00
18
68
48
70
C8
70
ENDCHAR
STARTCHAR Ebreve
ENCODING 276
SWIDTH 509 0
DWIDTH 6 0
BBX 8 12 0 0
BITMAP
09
0E
00
1E
32
26
6C
38
60
40
C8
70
ENDCHAR
STARTCHAR ebreve
ENCODING 277
SWIDTH 471 0
DWIDTH 6 0
BBX 6 9 0 0
BITMAP
14
18
00
18
68
48
70
C8
70
ENDCHAR
STARTCHAR Edotaccent
ENCODING 278
SWIDTH 509 0
DWIDTH 6 0
BBX 7 12 0 0
BITMAP
04
0C
00
1E
32
26
6C
38
60
40
C8
70
ENDCHAR
STARTCHAR edotaccent
ENCODING 279
SWIDTH 471 0
DWIDTH 6 0
BBX 5 9 0 0
BITMAP
18
08
00
18
68
48
70
C8
70
ENDCHAR
STARTCHAR Eogonek
ENCODING 280
SWIDTH 509 0
DWIDTH 6 0
BBX 7 12 0 -3
BITMAP
1E
32
26
6C
38
60
40
C8
78
20
60
60
ENDCHAR
STARTCHAR eogonek
ENCODING 281
SWIDTH 471 0
DWIDTH 6 0
BBX 5 9 0 -3
BITMAP
18
68
48
70
C8
78
20
20
70
ENDCHAR
STARTCHAR Ecaron
ENCODING 282
SWIDTH 509 0
DWIDTH 6 0
BBX 8 12 0 0
BITMAP
01
0E
08
1E
32
26
6C
38
60
40
C8
70
ENDCHAR
STARTCHAR ecaron
ENCODING 283
SWIDTH 471 0
DWIDTH 6 0
BBX 7 9 0 0
BITMAP
12
1C
00
18
68
48
70
C8
70
ENDCHAR
STARTCHAR Gcircumflex
ENCODING 284
SWIDTH 598 0
DWIDTH 7 0
BBX 7 12 1 0
BITMAP
04
0E
12
1C
24
44
CC
80
9C
88
90
E0
ENDCHAR
STARTCHAR gcircumflex
ENCODING 285
SWIDTH 526 0
DWIDTH 6 0
BBX 7 12 0 -3
BITMAP
04
1C
26
1C
64
4C
48
D8
68
10
10
60
ENDCHAR
STARTCHAR Gbreve
ENCODING 286
SWIDTH 598 0
DWIDTH 7 0
BBX 8 12 1 0
BITMAP
09
0E
00
1C
24
44
CC
80
9C
88
90
E0
ENDCHAR
STARTCHAR gbreve
ENCODING 287
SWIDTH 526 0
DWIDTH 6 0
BBX 7 12 0 -3
BITMAP
12
1C
00
1C
64
4C
48
D8
68
10
10
60
ENDCHAR
STARTCHAR Gdotaccent
ENCODING 288
SWIDTH 598 0
DWIDTH 7 0
BBX 6 12 1 0
BITMAP
08
0C
00
1C
24
44
CC
80
9C
88
90
E0
ENDCHAR
STARTCHAR gdotaccent
ENCODING 289
SWIDTH 526 0
DWIDTH 6 0
BBX 6 12 0 -3
BITMAP
0C
08
00
1C
64
4C
48
D8
68
10
10
60
ENDCHAR
STARTCHAR Gcommaaccent
ENCODING 290
SWIDTH 598 0
DWIDTH 7 0
BBX 6 12 1 -3
BITMAP
1C
24
44
CC
80
9C
88
90
E0
40
C0
80
ENDCHAR
STARTCHAR gcommaaccent
ENCODING 291
SWIDTH 526 0
DWIDTH 6 0
BBX 6 12 0 -3
BITMAP
04
08
00
1C
64
4C
48
D8
68
10
10
60
ENDCHAR
STARTCHAR Hcircumflex
ENCODING 292
SWIDTH 668 0
DWIDTH 8 0
BBX 8 12 0 0
BITMAP
02
06
0B
71
11
31
33
7F
62
44
C4
86
ENDCHAR
STARTCHAR hcircumflex
ENCODING 293
SWIDTH 555 0
DWIDTH 7 0
BBX 6 12 0 0
BITMAP
08
18
68
10
30
20
2C
34
6C
48
C8
8C
ENDCHAR
STARTCHAR Hbar
ENCODING 294
SWIDTH 668 0
DWIDTH 8 0
BBX 9 9 0 0
BITMAP
7100
1100
7F80
3300
7F00
6200
4600
C400
8600
ENDCHAR
STARTCHAR hbar
ENCODING 295
SWIDTH 555 0
DWIDTH 7 0
BBX 6 10 0 0
BITMAP
10
7C
30
20
2C
74
6C
48
C8
8C
ENDCHAR
STARTCHAR Itilde
ENCODING 296
SWIDTH 327 0
DWIDTH 4 0
BBX 6 12 0 0
BITMAP
34
48
00
70
10
10
30
20
20
60
40
80
ENDCHAR
STARTCHAR itilde
ENCODING 297
SWIDTH 286 0
DWIDTH 3 0
BBX 5 9 0 0
BITMAP
68
90
00
60
20
40
40
C0
E0
ENDCHAR
STARTCHAR Imacron
ENCODING 298
SWIDTH 327 0
DWIDTH 4 0
BBX 6 11 0 0
BITMAP
3C
00
70
10
10
30
20
20
60
40
80
ENDCHAR
STARTCHAR imacron
ENCODING 299
SWIDTH 286 0
DWIDTH 3 0
BBX 5 8 0 0
BITMAP
78
00
60
20
40
40
C0
E0
ENDCHAR
STARTCHAR Ibreve
ENCODING 300
SWIDTH 327 0
DWIDTH 4 0
BBX 6 12 0 0
BITMAP
24
38
00
70
10
10
30
20
20
60
40
80
ENDCHAR
STARTCHAR ibreve
ENCODING 301
SWIDTH 286 0
DWIDTH 3 0
BBX 5 9 0 0
BITMAP
48
30
00
60
20
40
40
C0
E0
ENDCHAR
STARTCHAR Iogonek
ENCODING 302
SWIDTH 327 0
DWIDTH 4 0
BBX 6 12 -2 -3
BITMAP
1C
04
04
0C
08
08
18
10
20
40
C0
E0
ENDCHAR
STARTCHAR iogonek
ENCODING 303
SWIDTH 297 0
DWIDTH 4 0
BBX 4 12 0 -3
BITMAP
30
30
00
60
20
60
40
40
E0
40
80
C0
ENDCHAR
STARTCHAR Idotaccent
ENCODING 304
SWIDTH 327 0
DWIDTH 4 0
BBX 4 12 0 0
BITMAP
10
10
00
70
10
10
30
20
20
60
40
80
ENDCHAR
STARTCHAR dotlessi
ENCODING 305
SWIDTH 286 0
DWIDTH 3 0
BBX 3 6 0 0
BITMAP
60
20
40
40
C0
E0
ENDCHAR
STARTCHAR IJ
ENCODING 306
SWIDTH 720 0
DWIDTH 9 0
BBX 9 12 0 -3
BITMAP
7780
1480
1180
3180
2100
2300
6200
4600
8400
0C00
1800
3000
ENDCHAR
STARTCHAR ij
ENCODING 307
SWIDTH 567 0
DWIDTH 7 0
BBX 7 12 0 -3
BITMAP
36
26
00
64
24
44
4C
C8
E8
10
10
60
ENDCHAR
STARTCHAR Jcircumflex
ENCODING 308
SWIDTH 393 0
DWIDTH 5 0
BBX 8 15 -2 -3
BITMAP
02
07
09
0E
12
06
06
04
0C
08
08
10
30
20
C0
ENDCHAR
STARTCHAR jcircumflex
ENCODING 309
SWIDTH 282 0
DWIDTH 3 0
BBX 7 13 -2 -3
BITMAP
04
0C
36
00
18
08
18
10
10
30
20
40
80
ENDCHAR
STARTCHAR Kcommaaccent
ENCODING 310
SWIDTH 616 0
DWIDTH 7 0
BBX 9 12 -1 -3
BITMAP
3980
1980
1900
1200
1400
3800
2400
6600
C300
1000
1000
2000
ENDCHAR
STARTCHAR kcommaaccent
ENCODING 311
SWIDTH 497 0
DWIDTH 6 0
BBX 6 13 0 -3
BITMAP
10
10
30
20
2C
2C
58
60
D0
9C
40
60
40
ENDCHAR
STARTCHAR kgreenlandic
ENCODING 312
SWIDTH 497 0
DWIDTH 6 0
BBX 6 6 0 0
BITMAP
6C
2C
58
60
D0
9C
ENDCHAR
STARTCHAR Lacute
ENCODING 313
SWIDTH 517 0
DWIDTH 6 0
BBX 7 12 0 0
BITMAP
02
02
04
0C
12
36
2C
28
60
40
88
FC
ENDCHAR
STARTCHAR lacute
ENCODING 314
SWIDTH 279 0
DWIDTH 3 0
BBX 5 12 0 0
BITMAP
08
08
10
10
30
20
20
60
40
40
C0
60
ENDCHAR
STARTCHAR Lcommaaccent
ENCODING 315
SWIDTH 517 0
DWIDTH 6 0
BBX 7 12 0 -3
BITMAP
0C
12
36
2C
28
60
40
88
FC
40
40
C0
ENDCHAR
STARTCHAR lcommaaccent
ENCODING 316
SWIDTH 279 0
DWIDTH 3 0
BBX 4 13 0 -3
BITMAP
10
30
20
20
20
60
40
40
C0
60
40
C0
80
ENDCHAR
STARTCHAR Lcaron
ENCODING 317
SWIDTH 517 0
DWIDTH 6 0
BBX 9 12 0 0
BITMAP
0080
0080
0080
0D00
1200
3600
2C00
2800
6000
4000
8800
FC00
ENDCHAR
STARTCHAR lcaron
ENCODING 318
SWIDTH 467 0
DWIDTH 6 0
BBX 7 10 0 0
BITMAP
16
34
24
20
20
60
40
40
C0
60
ENDCHAR
STARTCHAR Ldot
ENCODING 319
SWIDTH 668 0
DWIDTH 8 0
BBX 8 9 0 0
BITMAP
0C
12
36
2C
29
63
40
88
FC
ENDCHAR
STARTCHAR ldot
ENCODING 320
SWIDTH 489 0
DWIDTH 6 0
BBX 6 10 0 0
BITMAP
10
30
20
20
20
6C
48
40
C0
60
ENDCHAR
STARTCHAR Lslash
ENCODING 321
SWIDTH 517 0
DWIDTH 6 0
BBX 7 9 0 0
BITMAP
0C
12
36
24
2C
F0
40
80
FC
ENDCHAR
STARTCHAR lslash
ENCODING 322
SWIDTH 279 0
DWIDTH 3 0
BBX 5 10 0 0
BITMAP
20
38
30
20
20
60
40
40
C0
60
ENDCHAR
STARTCHAR Nacute
ENCODING 323
SWIDTH 708 0
DWIDTH 9 0
BBX 9 12 0 0
BITMAP
0080
0180
0100
0980
1880
2880
2880
4900
4900
4E00
8E00
8400
ENDCHAR
STARTCHAR nacute
ENCODING 324
SWIDTH 561 0
DWIDTH 7 0
BBX 6 9 0 0
BITMAP
04
0C
10
6C
34
6C
48
C8
8C
ENDCHAR
STARTCHAR Ncommaaccent
ENCODING 325
SWIDTH 708 0
DWIDTH 9 0
BBX 9 12 0 -3
BITMAP
0980
1880
2880
2880
4900
4900
4E00
8E00
8400
0000
1000
3000
ENDCHAR
STARTCHAR ncommaaccent
ENCODING 326
SWIDTH 561 0
DWIDTH 7 0
BBX 6 9 0 -3
BITMAP
6C
34
6C
48
C8
8C
20
60
40
ENDCHAR
STARTCHAR Ncaron
ENCODING 327
SWIDTH 708 0
DWIDTH 9 0
BBX 9 12 0 0
BITMAP
0480
0380
0200
0980
1880
2880
2880
4900
4900
4E00
8E00
8400
ENDCHAR
STARTCHAR ncaron
ENCODING 328
SWIDTH 561 0
DWIDTH 7 0
BBX 7 9 0 0
BITMAP
12
0C
00
6C
34
6C
48
C8
8C
ENDCHAR
STARTCHAR Eng
ENCODING 330
SWIDTH 698 0
DWIDTH 8 0
BBX 9 12 0 -3
BITMAP
1980
1880
2880
6880
4900
4900
C900
8E00
8400
0C00
1800
3000
ENDCHAR
STARTCHAR eng
ENCODING 331
SWIDTH 561 0
DWIDTH 7 0
BBX 6 9 0 -3
BITMAP
6C
34
64
4C
C8
98
10
30
60
ENDCHAR
STARTCHAR Omacron
ENCODING 332
SWIDTH 655 0
DWIDTH 8 0
BBX 8 11 1 0
BITMAP
1F
00
1C
22
62
C2
86
84
8C
98
70
ENDCHAR
STARTCHAR omacron
ENCODING 333
SWIDTH 514 0
DWIDTH 6 0
BBX 7 8 0 0
BITMAP
3E
00
38
6C
4C
C8
D8
70
ENDCHAR
STARTCHAR Obreve
ENCODING 334
SWIDTH 655 0
DWIDTH 8 0
BBX 8 12 1 0
BITMAP
09
0E
00
1C
22
62
C2
86
84
8C
98
70
ENDCHAR
STARTCHAR obreve
ENCODING 335
SWIDTH 514 0
DWIDTH 6 0
BBX 7 9 0 0
BITMAP
12
1C
00
38
6C
4C
C8
D8
70
ENDCHAR
STARTCHAR Ohungarumlaut
ENCODING 336
SWIDTH 655 0
DWIDTH 8 0
BBX 8 12 1 0
BITMAP
05
09
12
1C
22
62
C2
86
84
8C
98
70
ENDCHAR
STARTCHAR ohungarumlaut
ENCODING 337
SWIDTH 514 0
DWIDTH 6 0
BBX 7 9 0 0
BITMAP
0A
14
28
38
6C
4C
C8
D8
70
ENDCHAR
STARTCHAR OE
ENCODING 338
SWIDTH 900 0
DWIDTH 11 0
BBX 11 9 1 0
BITMAP
0EE0
3320
2260
4240
4280
C300
C400
CCC0
7780
ENDCHAR
STARTCHAR oe
ENCODING 339
SWIDTH 777 0
DWIDTH 9 0
BBX 8 6 1 0
BITMAP
37
4D
89
9E
99
EE
ENDCHAR
STARTCHAR Racute
ENCODING 340
SWIDTH 623 0
DWIDTH 7 0
BBX 8 12 0 0
BITMAP
02
02
04
3E
62
13
32
2C
70
48
CC
86
ENDCHAR
STARTCHAR racute
ENCODING 341
SWIDTH 407 0
DWIDTH 5 0
BBX 6 9 0 0
BITMAP
0C
08
10
68
78
60
40
40
80
ENDCHAR
STARTCHAR Rcommaaccent
ENCODING 342
SWIDTH 623 0
DWIDTH 7 0
BBX 8 12 0 -3
BITMAP
3E
62
13
32
2C
70
48
CC
86
20
60
40
ENDCHAR
STARTCHAR rcommaaccent
ENCODING 343
SWIDTH 407 0
DWIDTH 5 0
BBX 6 9 -1 -3
BITMAP
34
3C
30
20
20
40
40
40
80
ENDCHAR
STARTCHAR Rcaron
ENCODING 344
SWIDTH 623 0
DWIDTH 7 0
BBX 8 12 0 0
BITMAP
01
0E
08
3E
62
13
32
2C
70
48
CC
86
ENDCHAR
STARTCHAR rcaron
ENCODING 345
SWIDTH 407 0
DWIDTH 5 0
BBX 7 9 0 0
BITMAP
32
1C
00
68
78
60
40
40
80
ENDCHAR
STARTCHAR Sacute
ENCODING 346
SWIDTH 474 0
DWIDTH 6 0
BBX 7 12 0 0
BITMAP
02
02
04
1C
26
66
6C
20
30
50
90
60
ENDCHAR
STARTCHAR sacute
ENCODING 347
SWIDTH 423 0
DWIDTH 5 0
BBX 6 9 0 0
BITMAP
0C
08
10
38
48
60
30
90
E0
ENDCHAR
STARTCHAR Scircumflex
ENCODING 348
SWIDTH 474 0
DWIDTH 6 0
BBX 7 12 0 0
BITMAP
04
0E
12
1C
26
66
6C
20
30
50
90
60
ENDCHAR
STARTCHAR scircumflex
ENCODING 349
SWIDTH 423 0
DWIDTH 5 0
BBX 6 9 0 0
BITMAP
08
1C
24
38
48
60
30
90
E0
ENDCHAR
STARTCHAR Scedilla
ENCODING 350
SWIDTH 474 0
DWIDTH 6 0
BBX 7 12 0 -3
BITMAP
1C
26
66
6C
20
30
50
90
70
20
60
40
ENDCHAR
STARTCHAR scedilla
ENCODING 351
SWIDTH 423 0
DWIDTH 5 0
BBX 5 9 0 -3
BITMAP
38
48
60
30
90
E0
40
40
C0
ENDCHAR
STARTCHAR Scaron
ENCODING 352
SWIDTH 474 0
DWIDTH 6 0
BBX 8 12 0 0
BITMAP
01
0E
08
1C
26
66
6C
20
30
50
90
60
ENDCHAR
STARTCHAR scaron
ENCODING 353
SWIDTH 423 0
DWIDTH 5 0
BBX 7 9 0 0
BITMAP
12
1C
00
38
48
60
30
90
E0
ENDCHAR
STARTCHAR Tcommaaccent
ENCODING 354
SWIDTH 471 0
DWIDTH 6 0
BBX 7 12 1 -3
BITMAP
FE
90
30
20
20
60
40
40
80
80
C0
80
ENDCHAR
STARTCHAR tcommaaccent
ENCODING 355
SWIDTH 358 0
DWIDTH 4 0
BBX 5 11 0 -3
BITMAP
10
20
78
60
40
40
50
60
40
C0
80
ENDCHAR
STARTCHAR Tcaron
ENCODING 356
SWIDTH 471 0
DWIDTH 6 0
BBX 7 12 1 0
BITMAP
02
1E
08
FE
90
30
20
20
60
40
40
80
ENDCHAR
STARTCHAR tcaron
ENCODING 357
SWIDTH 497 0
DWIDTH 6 0
BBX 6 10 1 0
BITMAP
04
04
28
20
F0
40
C0
80
A0
E0
ENDCHAR
STARTCHAR Tbar
ENCODING 358
SWIDTH 471 0
DWIDTH 6 0
BBX 7 9 1 0
BITMAP
FE
90
30
20
F0
20
40
40
80
ENDCHAR
STARTCHAR tbar
ENCODING 359
SWIDTH 358 0
DWIDTH 4 0
BBX 5 8 0 0
BITMAP
10
20
78
60
F0
40
50
60
ENDCHAR
STARTCHAR Utilde
ENCODING 360
SWIDTH 624 0
DWIDTH 8 0
BBX 8 12 0 0
BITMAP
0D
12
00
31
11
33
22
66
4E
CC
D4
E6
ENDCHAR
STARTCHAR utilde
ENCODING 361
SWIDTH 553 0
DWIDTH 7 0
BBX 7 9 0 0
BITMAP
1A
16
00
66
24
6C
48
D8
EC
ENDCHAR
STARTCHAR Umacron
ENCODING 362
SWIDTH 624 0
DWIDTH 8 0
BBX 8 11 0 0
BITMAP
0F
00
31
11
33
22
66
4E
CC
D4
E6
ENDCHAR
STARTCHAR umacron
ENCODING 363
SWIDTH 553 0
DWIDTH 7 0
BBX 7 8 0 0
BITMAP
1E
00
66
24
6C
48
D8
EC
ENDCHAR
STARTCHAR Ubreve
ENCODING 364
SWIDTH 624 0
DWIDTH 8 0
BBX 8 12 0 0
BITMAP
09
0E
00
31
11
33
22
66
4E
CC
D4
E6
ENDCHAR
STARTCHAR ubreve
ENCODING 365
SWIDTH 553 0
DWIDTH 7 0
BBX 7 9 0 0
BITMAP
12
0C
00
66
24
6C
48
D8
EC
ENDCHAR
STARTCHAR Uring
ENCODING 366
SWIDTH 624 0
DWIDTH 8 0
BBX 8 12 0 0
BITMAP
06
09
0A
37
11
33
22
66
4E
CC
D4
E6
ENDCHAR
STARTCHAR uring
ENCODING 367
SWIDTH 553 0
DWIDTH 7 0
BBX 7 9 0 0
BITMAP
0E
1C
00
66
24
6C
48
D8
EC
ENDCHAR
STARTCHAR Uhungarumlaut
ENCODING 368
SWIDTH 624 0
DWIDTH 8 0
BBX 8 12 0 0
BITMAP
05
05
0A
31
11
33
22
66
4E
CC
D4
E6
ENDCHAR
STARTCHAR uhungarumlaut
ENCODING 369
SWIDTH 553 0
DWIDTH 7 0
BBX 7 9 0 0
BITMAP
0A
16
24
66
24
6C
48
D8
EC
ENDCHAR
STARTCHAR Uogonek
ENCODING 370
SWIDTH 684 0
DWIDTH 8 0
BBX 8 12 1 -3
BITMAP
23
22
26
46
4C
CC
9C
A8
CE
08
08
1C
ENDCHAR
STARTCHAR uogonek
ENCODING 371
SWIDTH 553 0
DWIDTH 7 0
BBX 7 9 0 -3
BITMAP
66
24
6C
48
D8
EC
08
10
18
ENDCHAR
STARTCHAR Wcircumflex
ENCODING 372
SWIDTH 941 0
DWIDTH 11 0
BBX 11 12 1 0
BITMAP
0100
0300
0480
E060
2060
6620
4C60
DC40
DC40
A880
C900
C600
ENDCHAR
STARTCHAR wcircumflex
ENCODING 373
SWIDTH 750 0
DWIDTH 9 0
BBX 9 9 0 0
BITMAP
0200
0E00
1100
6580
2C80
4880
5900
6900
CE00
ENDCHAR
STARTCHAR Ycircumflex
ENCODING 374
SWIDTH 580 0
DWIDTH 7 0
BBX 8 15 0 -3
BITMAP
02
06
0B
31
11
32
22
66
4C
CC
DC
E8
10
30
60
ENDCHAR
STARTCHAR ycircumflex
ENCODING 375
SWIDTH 549 0
DWIDTH 7 0
BBX 7 12 0 -3
BITMAP
04
1C
26
66
24
6C
4C
D8
E8
10
10
60
ENDCHAR
STARTCHAR Ydieresis
ENCODING 376
SWIDTH 580 0
DWIDTH 7 0
BBX 8 15 0 -3
BITMAP
09
0B
00
31
11
32
22
66
4C
CC
DC
E8
10
30
60
ENDCHAR
STARTCHAR Zacute
ENCODING 377
SWIDTH 501 0
DWIDTH 6 0
BBX 7 12 0 0
BITMAP
02
06
08
3E
06
0C
18
30
60
40
F8
C4
ENDCHAR
STARTCHAR zacute
ENCODING 378
SWIDTH 430 0
DWIDTH 5 0
BBX 6 9 0 0
BITMAP
04
08
10
7C
08
30
60
C0
F0
ENDCHAR
STARTCHAR Zdotaccent
ENCODING 379
SWIDTH 501 0
DWIDTH 6 0
BBX 7 12 0 0
BITMAP
08
08
00
3E
06
0C
18
30
60
40
B8
C4
ENDCHAR
STARTCHAR zdotaccent
ENCODING 380
SWIDTH 430 0
DWIDTH 5 0
BBX 6 9 0 0
BITMAP
18
10
00
7C
08
30
60
C0
F0
ENDCHAR
STARTCHAR Zcaron
ENCODING 381
SWIDTH 501 0
DWIDTH 6 0
BBX 7 12 0 0
BITMAP
12
0E
08
3E
06
0C
18
30
60
40
F8
C4
ENDCHAR
STARTCHAR zcaron
ENCODING 382
SWIDTH 430 0
DWIDTH 5 0
BBX 6 9 0 0
BITMAP
34
18
00
7C
08
30
60
C0
F0
ENDCHAR
STARTCHAR florin
ENCODING 402
SWIDTH 466 0
DWIDTH 6 0
BBX 9 13 -2 -3
BITMAP
0380
0280
0580
0400
1E00
0800
0800
1800
1000
1000
1000
A000
E000
ENDCHAR
STARTCHAR AEacute
ENCODING 508
SWIDTH 878 0
DWIDTH 11 0
BBX 12 12 -1 0
BITMAP
0020
0060
0080
03F0
0590
0D10
0920
1FC0
2300
2220
4260
C1C0
ENDCHAR
STARTCHAR aeacute
ENCODING 509
SWIDTH 770 0
DWIDTH 9 0
BBX 9 9 0 0
BITMAP
0200
0600
0800
1F80
6480
4D80
CF00
D880
6700
ENDCHAR
STARTCHAR Scommaaccent
ENCODING 536
SWIDTH 474 0
DWIDTH 6 0
BBX 7 12 0 -3
BITMAP
1C
26
66
6C
20
30
50
90
60
40
60
40
ENDCHAR
STARTCHAR scommaaccent
ENCODING 537
SWIDTH 423 0
DWIDTH 5 0
BBX 5 9 0 -3
BITMAP
38
48
60
30
90
E0
40
40
80
ENDCHAR
STARTCHAR dotlessj
ENCODING 567
SWIDTH 277 0
DWIDTH 3 0
BBX 5 9 -2 -3
BITMAP
18
18
18
10
10
30
20
40
80
ENDCHAR
STARTCHAR circumflex
ENCODING 710
SWIDTH 354 0
DWIDTH 4 0
BBX 4 3 0 7
BITMAP
10
30
D0
ENDCHAR
STARTCHAR caron
ENCODING 711
SWIDTH 381 0
DWIDTH 5 0
BBX 4 2 1 7
BITMAP
90
E0
ENDCHAR
STARTCHAR breve
ENCODING 728
SWIDTH 344 0
DWIDTH 4 0
BBX 3 2 1 7
BITMAP
A0
C0
ENDCHAR
STARTCHAR dotaccent
ENCODING 729
SWIDTH 217 0
DWIDTH 3 0
BBX 2 2 1 7
BITMAP
C0
80
ENDCHAR
STARTCHAR ring
ENCODING 730
SWIDTH 402 0
DWIDTH 5 0
BBX 3 3 2 6
BITMAP
E0
A0
C0
ENDCHAR
STARTCHAR ogonek
ENCODING 731
SWIDTH 311 0
DWIDTH 4 0
BBX 3 4 1 -3
BITMAP
60
80
80
C0
ENDCHAR
STARTCHAR tilde
ENCODING 732
SWIDTH 397 0
DWIDTH 5 0
BBX 4 2 1 7
BITMAP
D0
B0
ENDCHAR
STARTCHAR hungarumlaut
ENCODING 733
SWIDTH 392 0
DWIDTH 5 0
BBX 5 3 0 7
BITMAP
28
58
F0
ENDCHAR
STARTCHAR pi
ENCODING 960
SWIDTH 640 0
DWIDTH 8 0
BBX 8 6 0 0
BITMAP
7F
24
24
6C
48
CC
ENDCHAR
STARTCHAR uni1E02
ENCODING 7682
SWIDTH 551 0
DWIDTH 7 0
BBX 6 12 1 0
BITMAP
08
18
00
7C
A4
64
48
F0
88
88
90
E0
ENDCHAR
STARTCHAR uni1E03
ENCODING 7683
SWIDTH 525 0
DWIDTH 6 0
BBX 7 10 0 0
BITMAP
30
36
24
20
78
6C
4C
4C
D8
70
ENDCHAR
STARTCHAR uni1E0A
ENCODING 7690
SWIDTH 630 0
DWIDTH 8 0
BBX 7 12 1 0
BITMAP
08
18
00
F8
44
66
46
C6
84
88
90
E0
ENDCHAR
STARTCHAR uni1E0B
ENCODING 7691
SWIDTH 557 0
DWIDTH 7 0
BBX 8 10 0 0
BITMAP
01
32
32
06
1C
24
4C
48
D8
6C
ENDCHAR
STARTCHAR uni1E1E
ENCODING 7710
SWIDTH 518 0
DWIDTH 6 0
BBX 7 12 0 0
BITMAP
04
04
00
7E
58
10
10
7C
20
20
40
C0
ENDCHAR
STARTCHAR uni1E1F
ENCODING 7711
SWIDTH 393 0
DWIDTH 5 0
BBX 6 13 0 -2
BITMAP
18
0C
14
14
30
20
78
20
40
40
40
C0
80
ENDCHAR
STARTCHAR uni1E40
ENCODING 7744
SWIDTH 931 0
DWIDTH 11 0
BBX 12 12 -1 0
BITMAP
0040
0060
0000
0330
0750
0A70
12A0
16A0
2560
2540
4640
C470
ENDCHAR
STARTCHAR uni1E41
ENCODING 7745
SWIDTH 814 0
DWIDTH 10 0
BBX 9 9 0 0
BITMAP
0600
0600
0000
6D80
3680
6580
4D00
C900
9980
ENDCHAR
STARTCHAR uni1E56
ENCODING 7766
SWIDTH 553 0
DWIDTH 7 0
BBX 7 12 0 0
BITMAP
04
06
00
3C
62
12
32
24
78
40
C0
80
ENDCHAR
STARTCHAR uni1E57
ENCODING 7767
SWIDTH 550 0
DWIDTH 7 0
BBX 7 12 -1 -3
BITMAP
0C
04
00
3E
32
32
26
24
58
40
40
80
ENDCHAR
STARTCHAR uni1E60
ENCODING 7776
SWIDTH 474 0
DWIDTH 6 0
BBX 7 12 0 0
BITMAP
04
0C
00
1C
26
66
6C
20
30
50
90
60
ENDCHAR
STARTCHAR uni1E61
ENCODING 7777
SWIDTH 423 0
DWIDTH 5 0
BBX 5 9 0 0
BITMAP
18
08
00
38
48
60
30
90
E0
ENDCHAR
STARTCHAR uni1E6A
ENCODING 7786
SWIDTH 430 0
DWIDTH 5 0
BBX 7 12 0 0
BITMAP
04
0C
00
7E
D8
10
10
30
20
20
60
C0
ENDCHAR
STARTCHAR uni1E6B
ENCODING 7787
SWIDTH 358 0
DWIDTH 4 0
BBX 4 9 1 0
BITMAP
30
30
60
F0
40
C0
80
A0
C0
ENDCHAR
STARTCHAR Wgrave
ENCODING 7808
SWIDTH 941 0
DWIDTH 11 0
BBX 11 12 1 0
BITMAP
0200
0600
0100
E060
2060
6620
4C60
DC40
DC40
A880
C900
C600
ENDCHAR
STARTCHAR wgrave
ENCODING 7809
SWIDTH 750 0
DWIDTH 9 0
BBX 9 9 0 0
BITMAP
0C00
0400
0400
6580
2C80
4880
5900
6900
CE00
ENDCHAR
STARTCHAR Wacute
ENCODING 7810
SWIDTH 941 0
DWIDTH 11 0
BBX 11 12 1 0
BITMAP
0100
0180
0200
E060
2060
6620
4C60
DC40
DC40
A880
C900
C600
ENDCHAR
STARTCHAR wacute
ENCODING 7811
SWIDTH 750 0
DWIDTH 9 0
BBX 9 9 0 0
BITMAP
0200
0400
0800
6580
2C80
4880
5900
6900
CE00
ENDCHAR
STARTCHAR Wdieresis
ENCODING 7812
SWIDTH 941 0
DWIDTH 11 0
BBX 11 12 1 0
BITMAP
0480
0580
0000
E060
2060
6620
4C60
DC40
DC40
A880
C900
C600
ENDCHAR
STARTCHAR wdieresis
ENCODING 7813
SWIDTH 750 0
DWIDTH 9 0
BBX 9 9 0 0
BITMAP
1B00
0B00
0000
6580
2C80
4880
5900
6900
CE00
ENDCHAR
STARTCHAR Ygrave
ENCODING 7922
SWIDTH 580 0
DWIDTH 7 0
BBX 8 15 0 -3
BITMAP
08
0C
02
31
11
32
22
66
4C
CC
DC
E8
10
30
60
ENDCHAR
STARTCHAR ygrave
ENCODING 7923
SWIDTH 549 0
DWIDTH 7 0
BBX 7 12 0 -3
BITMAP
18
08
08
66
24
6C
4C
D8
E8
10
10
60
ENDCHAR
STARTCHAR endash
ENCODING 8211
SWIDTH 751 0
DWIDTH 9 0
BBX 7 1 1 3
BITMAP
FE
ENDCHAR
STARTCHAR emdash
ENCODING 8212
SWIDTH 1066 0
DWIDTH 13 0
BBX 11 1 1 3
BITMAP
FFE0
ENDCHAR
STARTCHAR quoteleft
ENCODING 8216
SWIDTH 268 0
DWIDTH 3 0
BBX 2 3 2 7
BITMAP
C0
80
80
ENDCHAR
STARTCHAR quoteright
ENCODING 8217
SWIDTH 268 0
DWIDTH 3 0
BBX 2 3 2 7
BITMAP
C0
40
80
ENDCHAR
STARTCHAR quotesinglbase
ENCODING 8218
SWIDTH 268 0
DWIDTH 3 0
BBX 2 3 0 -1
BITMAP
40
40
80
ENDCHAR
STARTCHAR quotedblleft
ENCODING 8220
SWIDTH 485 0
DWIDTH 6 0
BBX 4 3 2 7
BITMAP
50
A0
B0
ENDCHAR
STARTCHAR quotedblright
ENCODING 8221
SWIDTH 480 0
DWIDTH 6 0
BBX 4 3 2 7
BITMAP
D0
50
A0
ENDCHAR
STARTCHAR quotedblbase
ENCODING 8222
SWIDTH 463 0
DWIDTH 6 0
BBX 4 3 0 -1
BITMAP
50
50
B0
ENDCHAR
STARTCHAR dagger
ENCODING 8224
SWIDTH 488 0
DWIDTH 6 0
BBX 5 9 1 0
BITMAP
30
30
F8
20
60
40
40
40
80
ENDCHAR
STARTCHAR daggerdbl
ENCODING 8225
SWIDTH 488 0
DWIDTH 6 0
BBX 5 9 1 0
BITMAP
30
30
F8
20
60
F0
40
40
80
ENDCHAR
STARTCHAR bullet
ENCODING 8226
SWIDTH 437 0
DWIDTH 5 0
BBX 3 3 1 2
BITMAP
60
E0
60
ENDCHAR
STARTCHAR ellipsis
ENCODING 8230
SWIDTH 810 0
DWIDTH 10 0
BBX 9 2 0 0
BITMAP
C980
4900
ENDCHAR
STARTCHAR perthousand
ENCODING 8240
SWIDTH 1184 0
DWIDTH 14 0
BBX 12 9 1 0
BITMAP
6200
9400
A400
E800
1000
1630
2D50
4B50
4E60
ENDCHAR
STARTCHAR guilsinglleft
ENCODING 8249
SWIDTH 413 0
DWIDTH 5 0
BBX 3 5 1 1
BITMAP
20
40
80
40
20
ENDCHAR
STARTCHAR guilsinglright
ENCODING 8250
SWIDTH 416 0
DWIDTH 5 0
BBX 3 5 1 1
BITMAP
C0
60
20
C0
80
ENDCHAR
STARTCHAR fraction
ENCODING 8260
SWIDTH 580 0
DWIDTH 7 0
BBX 7 10 0 0
BITMAP
02
04
04
08
18
10
20
20
40
C0
ENDCHAR
STARTCHAR Euro
ENCODING 8364
SWIDTH 622 0
DWIDTH 7 0
BBX 7 9 1 0
BITMAP
0E
12
26
64
F8
F0
40
48
78
ENDCHAR
STARTCHAR trademark
ENCODING 8482
SWIDTH 1084 0
DWIDTH 13 0
BBX 10 5 2 4
BITMAP
FEC0
4740
4B80
4A80
52C0
ENDCHAR
STARTCHAR Omega
ENCODING 8486
SWIDTH 839 0
DWIDTH 10 0
BBX 9 9 1 0
BITMAP
3C00
4200
C100
8100
8100
C100
4300
6200
E780
ENDCHAR
STARTCHAR partialdiff
ENCODING 8706
SWIDTH 580 0
DWIDTH 7 0
BBX 7 10 0 0
BITMAP
0C
12
12
1A
26
44
44
CC
D8
70
ENDCHAR
STARTCHAR Delta
ENCODING 8710
SWIDTH 663 0
DWIDTH 8 0
BBX 8 7 0 0
BITMAP
18
18
24
24
42
42
FF
ENDCHAR
STARTCHAR product
ENCODING 8719
SWIDTH 667 0
DWIDTH 8 0
BBX 6 10 1 -1
BITMAP
FC
84
84
84
84
84
84
84
84
84
ENDCHAR
STARTCHAR summation
ENCODING 8721
SWIDTH 677 0
DWIDTH 8 0
BBX 7 10 0 -1
BITMAP
7E
60
30
10
18
08
10
20
40
FE
ENDCHAR
STARTCHAR minus
ENCODING 8722
SWIDTH 617 0
DWIDTH 7 0
BBX 6 1 1 4
BITMAP
FC
ENDCHAR
STARTCHAR radical
ENCODING 8730
SWIDTH 709 0
DWIDTH 9 0
BBX 9 11 0 0
BITMAP
0080
0080
0180
0100
0300
6200
E400
2400
3800
1800
1000
ENDCHAR
STARTCHAR infinity
ENCODING 8734
SWIDTH 681 0
DWIDTH 8 0
BBX 7 3 1 3
BITMAP
FC
92
FE
ENDCHAR
STARTCHAR integral
ENCODING 8747
SWIDTH 583 0
DWIDTH 7 0
BBX 9 13 -1 -2
BITMAP
0180
0280
0680
0400
0400
0C00
0800
0800
1800
1000
D000
B000
E000
ENDCHAR
STARTCHAR approxequal
ENCODING 8776
SWIDTH 671 0
DWIDTH 8 0
BBX 7 6 1 1
BITMAP
62
B4
98
64
BC
10
ENDCHAR
STARTCHAR notequal
ENCODING 8800
SWIDTH 617 0
DWIDTH 7 0
BBX 6 7 1 1
BITMAP
0C
08
FC
20
FC
40
80
ENDCHAR
STARTCHAR lessequal
ENCODING 8804
SWIDTH 704 0
DWIDTH 8 0
BBX 6 8 1 0
BITMAP
0C
10
60
C0
20
18
04
FC
ENDCHAR
STARTCHAR greaterequal
ENCODING 8805
SWIDTH 617 0
DWIDTH 7 0
BBX 6 8 1 0
BITMAP
80
60
18
0C
30
C0
00
FC
ENDCHAR
STARTCHAR lozenge
ENCODING 9674
SWIDTH 580 0
DWIDTH 7 0
BBX 5 9 1 0
BITMAP
20
70
50
88
88
88
50
50
20
ENDCHAR
STARTCHAR commaaccent
ENCODING 63171
SWIDTH 250 0
DWIDTH 3 0
BBX 2 2 0 -3
BITMAP
40
C0
ENDCHAR
STARTCHAR ff
ENCODING 64256
SWIDTH 773 0
DWIDTH 9 0
BBX 11 12 0 -2
BITMAP
0CE0
14A0
15E0
3100
2100
7FC0
A200
4200
4600
4400
C400
8C00
ENDCHAR
STARTCHAR fi
ENCODING 64257
SWIDTH 623 0
DWIDTH 7 0
BBX 8 12 0 -2
BITMAP
0E
19
13
32
3E
E2
66
44
4C
C6
80
80
ENDCHAR
STARTCHAR fl
ENCODING 64258
SWIDTH 637 0
DWIDTH 8 0
BBX 8 12 0 -2
BITMAP
0E
19
11
33
22
7A
66
44
44
C6
80
80
ENDCHAR
STARTCHAR .notdef
ENCODING -1
SWIDTH 896 0
DWIDTH 11 0
BBX 11 10 1 0
BITMAP
3FE0
3FC0
36C0
75C0
73C0
7780
EB80
D980
FF00
FF00
ENDCHAR
ENDFONT
